{
	"asset": {
		"generator": "Khronos glTF Blender I/O v3.6.27",
		"version": "2.0"
	},
	"scene": 0,
	"scenes": [
		{
			"name": "Scene",
			"nodes": [
				0
			]
		}
	],
	"nodes": [
		{
			"mesh": 0,
			"name": "Face",
			"rotation": [
				0,
				-0.7071068286895752,
				0,
				0.7071068286895752
			]
		}
	],
	"materials": [
		{
			"doubleSided": true,
			"name": "Face",
			"pbrMetallicRoughness": {
				"baseColorTexture": {
					"index": 0
				},
				"metallicFactor": 0,
				"roughnessFactor": 0.5
			}
		}
	],
	"meshes": [
		{
			"name": "Face",
			"primitives": [
				{
					"attributes": {
						"POSITION": 0,
						"NORMAL": 1,
						"TEXCOORD_0": 2
					},
					"indices": 3,
					"material": 0
				}
			]
		}
	],
	"textures": [
		{
			"sampler": 0,
			"source": 0
		}
	],
	"images": [
		{
			"mimeType": "image/png",
			"name": "diffuse",
			"uri": "diffuse_face.png"
		}
	],
	"accessors": [
		{
			"bufferView": 0,
			"componentType": 5126,
			"count": 3145,
			"max": [
				0.22625844180583954,
				0.9615479111671448,
				0.5690557956695557
			],
			"min": [
				0.0767008364200592,
				0.8208438754081726,
				0.4410855174064636
			],
			"type": "VEC3"
		},
		{
			"bufferView": 1,
			"componentType": 5126,
			"count": 3145,
			"type": "VEC3"
		},
		{
			"bufferView": 2,
			"componentType": 5126,
			"count": 3145,
			"type": "VEC2"
		},
		{
			"bufferView": 3,
			"componentType": 5123,
			"count": 12618,
			"type": "SCALAR"
		}
	],
	"bufferViews": [
		{
			"buffer": 0,
			"byteLength": 37740,
			"byteOffset": 0,
			"target": 34962
		},
		{
			"buffer": 0,
			"byteLength": 37740,
			"byteOffset": 37740,
			"target": 34962
		},
		{
			"buffer": 0,
			"byteLength": 25160,
			"byteOffset": 75480,
			"target": 34962
		},
		{
			"buffer": 0,
			"byteLength": 25236,
			"byteOffset": 100640,
			"target": 34963
		}
	],
	"buffers": [
		{
			"byteLength": 125876,
			"uri": "Kafka Face.bin"
		}
	]
}
