{
	"asset":{
		"generator":"Khronos glTF Blender I/O v3.6.27",
		"version":"2.0"
	},
	"scene":0,
	"scenes":[
		{
			"name":"Scene",
			"nodes":[
				0
			]
		}
	],
	"nodes":[
		{
			"mesh":0,
			"name":"Koharu",
			"rotation":[
				0.5,
				-0.4999999403953552,
				-0.5,
				0.5000000596046448
			]
		}
	],
	"materials":[
		{
			"doubleSided":true,
			"name":"Material.001",
			"pbrMetallicRoughness":{
				"baseColorTexture":{
					"index":0
				},
				"metallicFactor":0,
				"roughnessFactor":0.5
			}
		}
	],
	"meshes":[
		{
			"name":"Koharu.001",
			"primitives":[
				{
					"attributes":{
						"POSITION":0,
						"NORMAL":1,
						"TEXCOORD_0":2
					},
					"indices":3,
					"material":0
				}
			]
		}
	],
	"textures":[
		{
			"sampler":0,
			"source":0
		}
	],
	"images":[
		{
			"mimeType":"image/png",
			"name":"diffuse",
			"uri":"diffuse.png"
		}
	],
	"accessors":[
		{
			"bufferView":0,
			"componentType":5126,
			"count":19470,
			"max":[
				0.40834298729896545,
				0.36521801352500916,
				0.003836000105366111
			],
			"min":[
				-0.21835200488567352,
				-0.19640199840068817,
				-1.4755209684371948
			],
			"type":"VEC3"
		},
		{
			"bufferView":1,
			"componentType":5126,
			"count":19470,
			"type":"VEC3"
		},
		{
			"bufferView":2,
			"componentType":5126,
			"count":19470,
			"type":"VEC2"
		},
		{
			"bufferView":3,
			"componentType":5123,
			"count":85071,
			"type":"SCALAR"
		}
	],
	"bufferViews":[
		{
			"buffer":0,
			"byteLength":233640,
			"byteOffset":0,
			"target":34962
		},
		{
			"buffer":0,
			"byteLength":233640,
			"byteOffset":233640,
			"target":34962
		},
		{
			"buffer":0,
			"byteLength":155760,
			"byteOffset":467280,
			"target":34962
		},
		{
			"buffer":0,
			"byteLength":170142,
			"byteOffset":623040,
			"target":34963
		}
	],
	"samplers":[
		{
			"magFilter":9729,
			"minFilter":9987
		}
	],
	"buffers":[
		{
			"byteLength":793184,
			"uri":"Koharu.bin"
		}
	]
}
